<svg width="109" height="20" viewBox="0 0 109 20" fill="none" xmlns="http://www.w3.org/2000/svg">
<g clip-path="url(#clip0)">
<path fill-rule="evenodd" clip-rule="evenodd" d="M9.29604 2.65829C9.3536 2.47575 9.46785 2.31632 9.62221 2.20315C9.77656 2.08998 9.96297 2.02896 10.1544 2.02896C10.3458 2.02896 10.5322 2.08998 10.6865 2.20315C10.8409 2.31632 10.9551 2.47575 11.0127 2.65829L12.5627 7.42495H17.5627C17.7609 7.41746 17.9562 7.47507 18.1186 7.58899C18.281 7.7029 18.4017 7.86686 18.4621 8.0558C18.5226 8.24474 18.5195 8.44829 18.4534 8.63533C18.3873 8.82238 18.2618 8.98263 18.096 9.09162L14.0377 12.0333L15.5877 16.8083C15.649 16.9902 15.6505 17.1869 15.5921 17.3697C15.5337 17.5526 15.4183 17.7119 15.2629 17.8245C15.1075 17.9371 14.9201 17.9971 14.7282 17.9957C14.5362 17.9943 14.3498 17.9315 14.196 17.8166L10.1294 14.8416L6.07104 17.7916C5.91729 17.9065 5.73084 17.9693 5.53891 17.9707C5.34697 17.9721 5.15961 17.9121 5.00418 17.7995C4.84875 17.6869 4.7334 17.5276 4.67496 17.3447C4.61652 17.1619 4.61807 16.9652 4.67937 16.7833L6.22937 12.0083L2.17104 9.06662C2.00527 8.95763 1.87975 8.79738 1.81364 8.61033C1.74753 8.42329 1.74447 8.21975 1.80493 8.0308C1.8654 7.84186 1.98605 7.6779 2.14847 7.56398C2.31088 7.45007 2.50613 7.39246 2.70437 7.39995H7.70437L9.29604 2.65829Z" fill="#151515"/>
<path fill-rule="evenodd" clip-rule="evenodd" d="M31.296 2.65829C31.3536 2.47575 31.4679 2.31632 31.6222 2.20315C31.7766 2.08998 31.963 2.02896 32.1544 2.02896C32.3458 2.02896 32.5322 2.08998 32.6865 2.20315C32.8409 2.31632 32.9551 2.47575 33.0127 2.65829L34.5627 7.42495H39.5627C39.7609 7.41746 39.9562 7.47507 40.1186 7.58899C40.281 7.7029 40.4017 7.86686 40.4621 8.0558C40.5226 8.24474 40.5195 8.44829 40.4534 8.63533C40.3873 8.82238 40.2618 8.98263 40.096 9.09162L36.0377 12.0333L37.5877 16.8083C37.649 16.9902 37.6505 17.1869 37.5921 17.3697C37.5337 17.5526 37.4183 17.7119 37.2629 17.8245C37.1075 17.9371 36.9201 17.9971 36.7282 17.9957C36.5362 17.9943 36.3498 17.9315 36.196 17.8166L32.1294 14.8416L28.071 17.7916C27.9173 17.9065 27.7308 17.9693 27.5389 17.9707C27.347 17.9721 27.1596 17.9121 27.0042 17.7995C26.8488 17.6869 26.7334 17.5276 26.675 17.3447C26.6165 17.1619 26.6181 16.9652 26.6794 16.7833L28.2294 12.0083L24.171 9.06662C24.0053 8.95763 23.8797 8.79738 23.8136 8.61033C23.7475 8.42329 23.7445 8.21975 23.8049 8.0308C23.8654 7.84186 23.9861 7.6779 24.1485 7.56398C24.3109 7.45007 24.5061 7.39246 24.7044 7.39995H29.7044L31.296 2.65829Z" fill="#151515"/>
<path fill-rule="evenodd" clip-rule="evenodd" d="M53.296 2.65829C53.3536 2.47575 53.4679 2.31632 53.6222 2.20315C53.7766 2.08998 53.963 2.02896 54.1544 2.02896C54.3458 2.02896 54.5322 2.08998 54.6865 2.20315C54.8409 2.31632 54.9551 2.47575 55.0127 2.65829L56.5627 7.42495H61.5627C61.7609 7.41746 61.9562 7.47507 62.1186 7.58899C62.281 7.7029 62.4017 7.86686 62.4621 8.0558C62.5226 8.24474 62.5195 8.44829 62.4534 8.63533C62.3873 8.82238 62.2618 8.98263 62.096 9.09162L58.0377 12.0333L59.5877 16.8083C59.649 16.9902 59.6505 17.1869 59.5921 17.3697C59.5337 17.5526 59.4183 17.7119 59.2629 17.8245C59.1075 17.9371 58.9201 17.9971 58.7282 17.9957C58.5362 17.9943 58.3498 17.9315 58.196 17.8166L54.1294 14.8416L50.071 17.7916C49.9173 17.9065 49.7308 17.9693 49.5389 17.9707C49.347 17.9721 49.1596 17.9121 49.0042 17.7995C48.8488 17.6869 48.7334 17.5276 48.675 17.3447C48.6165 17.1619 48.6181 16.9652 48.6794 16.7833L50.2294 12.0083L46.171 9.06662C46.0053 8.95763 45.8797 8.79738 45.8136 8.61033C45.7475 8.42329 45.7445 8.21975 45.8049 8.0308C45.8654 7.84186 45.9861 7.6779 46.1485 7.56398C46.3109 7.45007 46.5061 7.39246 46.7044 7.39995H51.7044L53.296 2.65829Z" fill="#151515"/>
<path fill-rule="evenodd" clip-rule="evenodd" d="M75.296 2.65829C75.3536 2.47575 75.4679 2.31632 75.6222 2.20315C75.7766 2.08998 75.963 2.02896 76.1544 2.02896C76.3458 2.02896 76.5322 2.08998 76.6865 2.20315C76.8409 2.31632 76.9551 2.47575 77.0127 2.65829L78.5627 7.42495H83.5627C83.7609 7.41746 83.9562 7.47507 84.1186 7.58899C84.281 7.7029 84.4017 7.86686 84.4621 8.0558C84.5226 8.24474 84.5195 8.44829 84.4534 8.63533C84.3873 8.82238 84.2618 8.98263 84.096 9.09162L80.0377 12.0333L81.5877 16.8083C81.649 16.9902 81.6505 17.1869 81.5921 17.3697C81.5337 17.5526 81.4183 17.7119 81.2629 17.8245C81.1075 17.9371 80.9201 17.9971 80.7282 17.9957C80.5362 17.9943 80.3498 17.9315 80.196 17.8166L76.1294 14.8416L72.071 17.7916C71.9173 17.9065 71.7308 17.9693 71.5389 17.9707C71.347 17.9721 71.1596 17.9121 71.0042 17.7995C70.8488 17.6869 70.7334 17.5276 70.675 17.3447C70.6165 17.1619 70.6181 16.9652 70.6794 16.7833L72.2294 12.0083L68.171 9.06662C68.0053 8.95763 67.8797 8.79738 67.8136 8.61033C67.7475 8.42329 67.7445 8.21975 67.8049 8.0308C67.8654 7.84186 67.9861 7.6779 68.1485 7.56398C68.3109 7.45007 68.5061 7.39246 68.7044 7.39995H73.7044L75.296 2.65829Z" fill="#151515"/>
<path fill-rule="evenodd" clip-rule="evenodd" d="M97.296 2.65829C97.3536 2.47575 97.4679 2.31632 97.6222 2.20315C97.7766 2.08998 97.963 2.02896 98.1544 2.02896C98.3458 2.02896 98.5322 2.08998 98.6865 2.20315C98.8409 2.31632 98.9551 2.47575 99.0127 2.65829L100.563 7.42495H105.563C105.761 7.41746 105.956 7.47507 106.119 7.58899C106.281 7.7029 106.402 7.86686 106.462 8.0558C106.523 8.24474 106.52 8.44829 106.453 8.63533C106.387 8.82238 106.262 8.98263 106.096 9.09162L102.038 12.0333L103.588 16.8083C103.649 16.9902 103.651 17.1869 103.592 17.3697C103.534 17.5526 103.418 17.7119 103.263 17.8245C103.107 17.9371 102.92 17.9971 102.728 17.9957C102.536 17.9943 102.35 17.9315 102.196 17.8166L98.1294 14.8416L94.071 17.7916C93.9173 17.9065 93.7308 17.9693 93.5389 17.9707C93.347 17.9721 93.1596 17.9121 93.0042 17.7995C92.8488 17.6869 92.7334 17.5276 92.675 17.3447C92.6165 17.1619 92.6181 16.9652 92.6794 16.7833L94.2294 12.0083L90.171 9.06662C90.0053 8.95763 89.8797 8.79738 89.8136 8.61033C89.7475 8.42329 89.7445 8.21975 89.8049 8.0308C89.8654 7.84186 89.9861 7.6779 90.1485 7.56399C90.3109 7.45007 90.5061 7.39246 90.7044 7.39995H95.7044L97.296 2.65829Z" stroke="#EBEBEB" stroke-width="1.5" stroke-linecap="round" stroke-linejoin="round"/>
</g>
<defs>
<clipPath id="clip0">
<rect width="108" height="20" fill="white" transform="translate(0.128906)"/>
</clipPath>
</defs>
</svg>
