<svg width="21" height="20" viewBox="0 0 21 20" fill="none" xmlns="http://www.w3.org/2000/svg">
<path fill-rule="evenodd" clip-rule="evenodd" d="M9.29604 2.65829C9.3536 2.47575 9.46785 2.31632 9.62221 2.20315C9.77656 2.08998 9.96297 2.02896 10.1544 2.02896C10.3458 2.02896 10.5322 2.08998 10.6865 2.20315C10.8409 2.31632 10.9551 2.47575 11.0127 2.65829L12.5627 7.42495H17.5627C17.7609 7.41746 17.9562 7.47507 18.1186 7.58899C18.281 7.7029 18.4017 7.86686 18.4621 8.0558C18.5226 8.24474 18.5195 8.44829 18.4534 8.63533C18.3873 8.82238 18.2618 8.98263 18.096 9.09162L14.0377 12.0333L15.5877 16.8083C15.649 16.9902 15.6505 17.1869 15.5921 17.3697C15.5337 17.5526 15.4183 17.7119 15.2629 17.8245C15.1075 17.9371 14.9201 17.9971 14.7282 17.9957C14.5362 17.9943 14.3498 17.9315 14.196 17.8166L10.1294 14.8416L6.07104 17.7916C5.91729 17.9065 5.73084 17.9693 5.53891 17.9707C5.34697 17.9721 5.15961 17.9121 5.00418 17.7995C4.84875 17.6869 4.7334 17.5276 4.67496 17.3447C4.61653 17.1619 4.61807 16.9652 4.67937 16.7833L6.22937 12.0083L2.17104 9.06662C2.00527 8.95763 1.87975 8.79738 1.81364 8.61033C1.74753 8.42329 1.74447 8.21975 1.80493 8.0308C1.8654 7.84186 1.98605 7.6779 2.14847 7.56399C2.31088 7.45007 2.50613 7.39246 2.70437 7.39995H7.70437L9.29604 2.65829Z" stroke="#EBEBEB" stroke-width="1.5" stroke-linecap="round" stroke-linejoin="round"/>
</svg>
